<?xml version="1.0" encoding="UTF-8"?>
<svg xmlns="http://www.w3.org/2000/svg" xmlns:xlink="http://www.w3.org/1999/xlink" viewBox="0 0 24 24" width="24px" height="24px">
<g id="surface134853661">
<path style=" stroke:none;fill-rule:nonzero;fill:rgb(20.392157%,69.01961%,74.509805%);fill-opacity:1;" d="M 12 21.75 C 6.625 21.75 2.25 17.375 2.25 12 C 2.25 6.625 6.625 2.25 12 2.25 C 17.375 2.25 21.75 6.625 21.75 12 C 21.75 17.375 17.375 21.75 12 21.75 Z M 12 3 C 7.039062 3 3 7.039062 3 12 C 3 16.960938 7.039062 21 12 21 C 16.960938 21 21 16.960938 21 12 C 21 7.039062 16.960938 3 12 3 Z M 12 3 "/>
<path style=" stroke:none;fill-rule:nonzero;fill:rgb(52.156866%,83.137256%,87.058824%);fill-opacity:1;" d="M 7.125 9.75 L 9.375 9.75 L 9.375 16.5 L 7.125 16.5 Z M 7.125 9.75 "/>
<path style=" stroke:none;fill-rule:nonzero;fill:rgb(52.156866%,83.137256%,87.058824%);fill-opacity:1;" d="M 9.75 7.875 C 9.75 8.496094 9.164062 9 8.4375 9 C 7.710938 9 7.125 8.496094 7.125 7.875 C 7.125 7.253906 7.710938 6.75 8.4375 6.75 C 9.164062 6.75 9.75 7.253906 9.75 7.875 Z M 9.75 7.875 "/>
<path style=" stroke:none;fill-rule:nonzero;fill:rgb(52.156866%,83.137256%,87.058824%);fill-opacity:1;" d="M 15 9.75 L 14.800781 9.75 C 13.980469 9.75 13.300781 10.339844 13.15625 11.117188 L 13.125 11.117188 L 13.125 9.75 L 10.875 9.75 L 10.875 16.5 L 13.125 16.5 L 13.125 12.707031 C 13.128906 12.5625 13.140625 12.433594 13.15625 12.308594 C 13.273438 11.808594 13.714844 11.4375 14.25 11.4375 C 14.871094 11.4375 15.375 11.941406 15.375 12.5625 L 15.375 16.5 L 17.625 16.5 L 17.625 12.375 C 17.625 10.925781 16.449219 9.75 15 9.75 Z M 15 9.75 "/>
</g>
</svg>
